<mxfile host="Electron" modified="2023-08-02T15:25:40.806Z" agent="Mozilla/5.0 (Windows NT 10.0; Win64; x64) AppleWebKit/537.36 (KHTML, like Gecko) draw.io/21.6.5 Chrome/114.0.5735.243 Electron/25.3.1 Safari/537.36" etag="XWhjed43FwlzgtZrsnaw" version="21.6.5" type="device">
  <diagram name="Page-1" id="1hyJStiOnwfkOw-g2N9b">
    <mxGraphModel dx="502" dy="1500" grid="1" gridSize="10" guides="1" tooltips="1" connect="1" arrows="1" fold="1" page="1" pageScale="1" pageWidth="850" pageHeight="1100" math="0" shadow="0">
      <root>
        <mxCell id="0" />
        <mxCell id="1" parent="0" />
        <mxCell id="ZnHkwOPtN5c3F1lDUpZy-10" value="Territory" style="swimlane;fontStyle=0;childLayout=stackLayout;horizontal=1;startSize=26;horizontalStack=0;resizeParent=1;resizeParentMax=0;resizeLast=0;collapsible=1;marginBottom=0;align=center;fontSize=14;" vertex="1" parent="1">
          <mxGeometry x="40" y="10" width="160" height="86" as="geometry" />
        </mxCell>
        <mxCell id="ZnHkwOPtN5c3F1lDUpZy-11" value="id" style="text;strokeColor=none;fillColor=none;spacingLeft=4;spacingRight=4;overflow=hidden;rotatable=0;points=[[0,0.5],[1,0.5]];portConstraint=eastwest;fontSize=12;whiteSpace=wrap;html=1;" vertex="1" parent="ZnHkwOPtN5c3F1lDUpZy-10">
          <mxGeometry y="26" width="160" height="30" as="geometry" />
        </mxCell>
        <mxCell id="ZnHkwOPtN5c3F1lDUpZy-12" value="Name" style="text;strokeColor=none;fillColor=none;spacingLeft=4;spacingRight=4;overflow=hidden;rotatable=0;points=[[0,0.5],[1,0.5]];portConstraint=eastwest;fontSize=12;whiteSpace=wrap;html=1;" vertex="1" parent="ZnHkwOPtN5c3F1lDUpZy-10">
          <mxGeometry y="56" width="160" height="30" as="geometry" />
        </mxCell>
        <mxCell id="ZnHkwOPtN5c3F1lDUpZy-14" value="PersonalTerritory" style="swimlane;fontStyle=0;childLayout=stackLayout;horizontal=1;startSize=26;horizontalStack=0;resizeParent=1;resizeParentMax=0;resizeLast=0;collapsible=1;marginBottom=0;align=center;fontSize=14;" vertex="1" parent="1">
          <mxGeometry x="310" y="140" width="290" height="116" as="geometry" />
        </mxCell>
        <mxCell id="ZnHkwOPtN5c3F1lDUpZy-15" value="id" style="text;strokeColor=none;fillColor=none;spacingLeft=4;spacingRight=4;overflow=hidden;rotatable=0;points=[[0,0.5],[1,0.5]];portConstraint=eastwest;fontSize=12;whiteSpace=wrap;html=1;" vertex="1" parent="ZnHkwOPtN5c3F1lDUpZy-14">
          <mxGeometry y="26" width="290" height="30" as="geometry" />
        </mxCell>
        <mxCell id="ZnHkwOPtN5c3F1lDUpZy-21" value="territoryId" style="text;strokeColor=none;fillColor=none;spacingLeft=4;spacingRight=4;overflow=hidden;rotatable=0;points=[[0,0.5],[1,0.5]];portConstraint=eastwest;fontSize=12;whiteSpace=wrap;html=1;" vertex="1" parent="ZnHkwOPtN5c3F1lDUpZy-14">
          <mxGeometry y="56" width="290" height="30" as="geometry" />
        </mxCell>
        <mxCell id="ZnHkwOPtN5c3F1lDUpZy-16" value="Name" style="text;strokeColor=none;fillColor=none;spacingLeft=4;spacingRight=4;overflow=hidden;rotatable=0;points=[[0,0.5],[1,0.5]];portConstraint=eastwest;fontSize=12;whiteSpace=wrap;html=1;" vertex="1" parent="ZnHkwOPtN5c3F1lDUpZy-14">
          <mxGeometry y="86" width="290" height="30" as="geometry" />
        </mxCell>
        <mxCell id="ZnHkwOPtN5c3F1lDUpZy-17" value="" style="edgeStyle=entityRelationEdgeStyle;fontSize=12;html=1;endArrow=ERoneToMany;rounded=0;" edge="1" parent="1" source="ZnHkwOPtN5c3F1lDUpZy-10" target="ZnHkwOPtN5c3F1lDUpZy-14">
          <mxGeometry width="100" height="100" relative="1" as="geometry">
            <mxPoint x="320" y="230" as="sourcePoint" />
            <mxPoint x="420" y="130" as="targetPoint" />
          </mxGeometry>
        </mxCell>
        <mxCell id="ZnHkwOPtN5c3F1lDUpZy-18" value="Lines" style="swimlane;fontStyle=0;childLayout=stackLayout;horizontal=1;startSize=26;horizontalStack=0;resizeParent=1;resizeParentMax=0;resizeLast=0;collapsible=1;marginBottom=0;align=center;fontSize=14;" vertex="1" parent="1">
          <mxGeometry x="520" y="340" width="290" height="116" as="geometry" />
        </mxCell>
        <mxCell id="ZnHkwOPtN5c3F1lDUpZy-19" value="id" style="text;strokeColor=none;fillColor=none;spacingLeft=4;spacingRight=4;overflow=hidden;rotatable=0;points=[[0,0.5],[1,0.5]];portConstraint=eastwest;fontSize=12;whiteSpace=wrap;html=1;" vertex="1" parent="ZnHkwOPtN5c3F1lDUpZy-18">
          <mxGeometry y="26" width="290" height="30" as="geometry" />
        </mxCell>
        <mxCell id="ZnHkwOPtN5c3F1lDUpZy-22" value="PersonalTerritoryId" style="text;strokeColor=none;fillColor=none;spacingLeft=4;spacingRight=4;overflow=hidden;rotatable=0;points=[[0,0.5],[1,0.5]];portConstraint=eastwest;fontSize=12;whiteSpace=wrap;html=1;" vertex="1" parent="ZnHkwOPtN5c3F1lDUpZy-18">
          <mxGeometry y="56" width="290" height="30" as="geometry" />
        </mxCell>
        <mxCell id="ZnHkwOPtN5c3F1lDUpZy-20" value="data" style="text;strokeColor=none;fillColor=none;spacingLeft=4;spacingRight=4;overflow=hidden;rotatable=0;points=[[0,0.5],[1,0.5]];portConstraint=eastwest;fontSize=12;whiteSpace=wrap;html=1;" vertex="1" parent="ZnHkwOPtN5c3F1lDUpZy-18">
          <mxGeometry y="86" width="290" height="30" as="geometry" />
        </mxCell>
        <mxCell id="ZnHkwOPtN5c3F1lDUpZy-24" style="edgeStyle=none;rounded=0;orthogonalLoop=1;jettySize=auto;html=1;exitX=0;exitY=0.5;exitDx=0;exitDy=0;entryX=1;entryY=0.5;entryDx=0;entryDy=0;" edge="1" parent="1" source="ZnHkwOPtN5c3F1lDUpZy-23" target="ZnHkwOPtN5c3F1lDUpZy-20">
          <mxGeometry relative="1" as="geometry" />
        </mxCell>
        <mxCell id="ZnHkwOPtN5c3F1lDUpZy-23" value="Строка с названием улицы и ряда домов&lt;br&gt;Строка (пункт) участка" style="text;html=1;strokeColor=none;fillColor=none;align=left;verticalAlign=middle;whiteSpace=wrap;rounded=0;" vertex="1" parent="1">
          <mxGeometry x="980" y="373" width="240" height="30" as="geometry" />
        </mxCell>
        <mxCell id="ZnHkwOPtN5c3F1lDUpZy-25" value="" style="fontSize=12;html=1;endArrow=ERoneToMany;rounded=0;entryX=0.345;entryY=-0.018;entryDx=0;entryDy=0;entryPerimeter=0;edgeStyle=orthogonalEdgeStyle;curved=1;" edge="1" parent="1" source="ZnHkwOPtN5c3F1lDUpZy-14" target="ZnHkwOPtN5c3F1lDUpZy-18">
          <mxGeometry width="100" height="100" relative="1" as="geometry">
            <mxPoint x="470" y="255.91200000000003" as="sourcePoint" />
            <mxPoint x="640" y="235.91200000000003" as="targetPoint" />
          </mxGeometry>
        </mxCell>
        <mxCell id="ZnHkwOPtN5c3F1lDUpZy-26" value="Начало учатска строка, начинающаяся с &quot;Участок&quot;&lt;br&gt;" style="text;html=1;strokeColor=none;fillColor=none;align=left;verticalAlign=top;whiteSpace=wrap;rounded=0;" vertex="1" parent="1">
          <mxGeometry x="240" y="-310" width="330" height="150" as="geometry" />
        </mxCell>
      </root>
    </mxGraphModel>
  </diagram>
</mxfile>
